<svg width="41" height="41" viewBox="0 0 41 41" fill="none" xmlns="http://www.w3.org/2000/svg">
<g opacity="0.3">
<mask id="mask0_269_5" style="mask-type:alpha" maskUnits="userSpaceOnUse" x="0" y="0" width="4" height="4">
<path d="M1.62914 3.71672C2.52889 3.71672 3.25828 2.88469 3.25828 1.85835C3.25828 0.832009 2.52889 0 1.62914 0C0.729389 0 0 0.832009 0 1.85835C0 2.88469 0.729389 3.71672 1.62914 3.71672Z" fill="url(#paint0_linear_269_5)"/>
</mask>
<g mask="url(#mask0_269_5)">
<path d="M1.62914 3.71672C2.52889 3.71672 3.25828 2.88469 3.25828 1.85835C3.25828 0.832009 2.52889 0 1.62914 0C0.729389 0 0 0.832009 0 1.85835C0 2.88469 0.729389 3.71672 1.62914 3.71672Z" fill="url(#paint1_linear_269_5)"/>
</g>
<mask id="mask1_269_5" style="mask-type:alpha" maskUnits="userSpaceOnUse" x="9" y="0" width="4" height="4">
<path d="M11.0647 3.71672C11.9644 3.71672 12.6938 2.88469 12.6938 1.85835C12.6938 0.832009 11.9644 0 11.0647 0C10.1649 0 9.43555 0.832009 9.43555 1.85835C9.43555 2.88469 10.1649 3.71672 11.0647 3.71672Z" fill="url(#paint2_linear_269_5)"/>
</mask>
<g mask="url(#mask1_269_5)">
<path d="M11.0647 3.71672C11.9644 3.71672 12.6938 2.88469 12.6938 1.85835C12.6938 0.832009 11.9644 0 11.0647 0C10.1649 0 9.43555 0.832009 9.43555 1.85835C9.43555 2.88469 10.1649 3.71672 11.0647 3.71672Z" fill="url(#paint3_linear_269_5)"/>
</g>
<mask id="mask2_269_5" style="mask-type:alpha" maskUnits="userSpaceOnUse" x="18" y="0" width="5" height="4">
<path d="M20.5007 3.71672C21.4005 3.71672 22.1299 2.88469 22.1299 1.85835C22.1299 0.832009 21.4005 0 20.5007 0C19.601 0 18.8716 0.832009 18.8716 1.85835C18.8716 2.88469 19.601 3.71672 20.5007 3.71672Z" fill="url(#paint4_linear_269_5)"/>
</mask>
<g mask="url(#mask2_269_5)">
<path d="M20.5002 3.71672C21.4 3.71672 22.1294 2.88469 22.1294 1.85835C22.1294 0.832009 21.4 0 20.5002 0C19.6005 0 18.8711 0.832009 18.8711 1.85835C18.8711 2.88469 19.6005 3.71672 20.5002 3.71672Z" fill="url(#paint5_linear_269_5)"/>
</g>
<mask id="mask3_269_5" style="mask-type:alpha" maskUnits="userSpaceOnUse" x="28" y="0" width="4" height="4">
<path d="M29.936 3.71672C30.8358 3.71672 31.5652 2.88469 31.5652 1.85835C31.5652 0.832009 30.8358 0 29.936 0C29.0363 0 28.3069 0.832009 28.3069 1.85835C28.3069 2.88469 29.0363 3.71672 29.936 3.71672Z" fill="url(#paint6_linear_269_5)"/>
</mask>
<g mask="url(#mask3_269_5)">
<path d="M29.9358 3.71672C30.8355 3.71672 31.5649 2.88469 31.5649 1.85835C31.5649 0.832009 30.8355 0 29.9358 0C29.036 0 28.3066 0.832009 28.3066 1.85835C28.3066 2.88469 29.036 3.71672 29.9358 3.71672Z" fill="url(#paint7_linear_269_5)"/>
</g>
<mask id="mask4_269_5" style="mask-type:alpha" maskUnits="userSpaceOnUse" x="37" y="0" width="4" height="4">
<path d="M39.3708 3.71672C40.2706 3.71672 41 2.88469 41 1.85835C41 0.832009 40.2706 0 39.3708 0C38.4711 0 37.7417 0.832009 37.7417 1.85835C37.7417 2.88469 38.4711 3.71672 39.3708 3.71672Z" fill="url(#paint8_linear_269_5)"/>
</mask>
<g mask="url(#mask4_269_5)">
<path d="M39.3708 3.71672C40.2706 3.71672 41 2.88469 41 1.85835C41 0.832009 40.2706 0 39.3708 0C38.4711 0 37.7417 0.832009 37.7417 1.85835C37.7417 2.88469 38.4711 3.71672 39.3708 3.71672Z" fill="url(#paint9_linear_269_5)"/>
</g>
<mask id="mask5_269_5" style="mask-type:alpha" maskUnits="userSpaceOnUse" x="0" y="9" width="4" height="5">
<path d="M1.62914 13.0472C2.52889 13.0472 3.25828 12.2152 3.25828 11.1888C3.25828 10.1625 2.52889 9.33051 1.62914 9.33051C0.729389 9.33051 0 10.1625 0 11.1888C0 12.2152 0.729389 13.0472 1.62914 13.0472Z" fill="url(#paint10_linear_269_5)"/>
</mask>
<g mask="url(#mask5_269_5)">
<path d="M1.62914 13.0472C2.52889 13.0472 3.25828 12.2152 3.25828 11.1888C3.25828 10.1625 2.52889 9.33051 1.62914 9.33051C0.729389 9.33051 0 10.1625 0 11.1888C0 12.2152 0.729389 13.0472 1.62914 13.0472Z" fill="url(#paint11_linear_269_5)"/>
</g>
<mask id="mask6_269_5" style="mask-type:alpha" maskUnits="userSpaceOnUse" x="9" y="9" width="4" height="5">
<path d="M11.0647 13.0472C11.9644 13.0472 12.6938 12.2152 12.6938 11.1888C12.6938 10.1625 11.9644 9.33051 11.0647 9.33051C10.1649 9.33051 9.43555 10.1625 9.43555 11.1888C9.43555 12.2152 10.1649 13.0472 11.0647 13.0472Z" fill="url(#paint12_linear_269_5)"/>
</mask>
<g mask="url(#mask6_269_5)">
<path d="M11.0647 13.0472C11.9644 13.0472 12.6938 12.2152 12.6938 11.1888C12.6938 10.1625 11.9644 9.33051 11.0647 9.33051C10.1649 9.33051 9.43555 10.1625 9.43555 11.1888C9.43555 12.2152 10.1649 13.0472 11.0647 13.0472Z" fill="url(#paint13_linear_269_5)"/>
</g>
<mask id="mask7_269_5" style="mask-type:alpha" maskUnits="userSpaceOnUse" x="18" y="9" width="5" height="5">
<path d="M20.5007 13.0472C21.4005 13.0472 22.1299 12.2152 22.1299 11.1888C22.1299 10.1625 21.4005 9.33051 20.5007 9.33051C19.601 9.33051 18.8716 10.1625 18.8716 11.1888C18.8716 12.2152 19.601 13.0472 20.5007 13.0472Z" fill="url(#paint14_linear_269_5)"/>
</mask>
<g mask="url(#mask7_269_5)">
<path d="M20.5002 13.0472C21.4 13.0472 22.1294 12.2152 22.1294 11.1888C22.1294 10.1625 21.4 9.33051 20.5002 9.33051C19.6005 9.33051 18.8711 10.1625 18.8711 11.1888C18.8711 12.2152 19.6005 13.0472 20.5002 13.0472Z" fill="url(#paint15_linear_269_5)"/>
</g>
<mask id="mask8_269_5" style="mask-type:alpha" maskUnits="userSpaceOnUse" x="28" y="9" width="4" height="5">
<path d="M29.936 13.0472C30.8358 13.0472 31.5652 12.2152 31.5652 11.1888C31.5652 10.1625 30.8358 9.33051 29.936 9.33051C29.0363 9.33051 28.3069 10.1625 28.3069 11.1888C28.3069 12.2152 29.0363 13.0472 29.936 13.0472Z" fill="url(#paint16_linear_269_5)"/>
</mask>
<g mask="url(#mask8_269_5)">
<path d="M29.9358 13.0472C30.8355 13.0472 31.5649 12.2152 31.5649 11.1888C31.5649 10.1625 30.8355 9.33051 29.9358 9.33051C29.036 9.33051 28.3066 10.1625 28.3066 11.1888C28.3066 12.2152 29.036 13.0472 29.9358 13.0472Z" fill="url(#paint17_linear_269_5)"/>
</g>
<mask id="mask9_269_5" style="mask-type:alpha" maskUnits="userSpaceOnUse" x="37" y="9" width="4" height="5">
<path d="M39.3708 13.0472C40.2706 13.0472 41 12.2152 41 11.1888C41 10.1625 40.2706 9.33051 39.3708 9.33051C38.4711 9.33051 37.7417 10.1625 37.7417 11.1888C37.7417 12.2152 38.4711 13.0472 39.3708 13.0472Z" fill="url(#paint18_linear_269_5)"/>
</mask>
<g mask="url(#mask9_269_5)">
<path d="M39.3708 13.0472C40.2706 13.0472 41 12.2152 41 11.1888C41 10.1625 40.2706 9.33051 39.3708 9.33051C38.4711 9.33051 37.7417 10.1625 37.7417 11.1888C37.7417 12.2152 38.4711 13.0472 39.3708 13.0472Z" fill="url(#paint19_linear_269_5)"/>
</g>
<mask id="mask10_269_5" style="mask-type:alpha" maskUnits="userSpaceOnUse" x="0" y="18" width="4" height="5">
<path d="M1.62914 22.3584C2.52889 22.3584 3.25828 21.5263 3.25828 20.5C3.25828 19.4736 2.52889 18.6416 1.62914 18.6416C0.729389 18.6416 0 19.4736 0 20.5C0 21.5263 0.729389 22.3584 1.62914 22.3584Z" fill="url(#paint20_linear_269_5)"/>
</mask>
<g mask="url(#mask10_269_5)">
<path d="M1.62914 22.3584C2.52889 22.3584 3.25828 21.5263 3.25828 20.5C3.25828 19.4736 2.52889 18.6416 1.62914 18.6416C0.729389 18.6416 0 19.4736 0 20.5C0 21.5263 0.729389 22.3584 1.62914 22.3584Z" fill="url(#paint21_linear_269_5)"/>
</g>
<mask id="mask11_269_5" style="mask-type:alpha" maskUnits="userSpaceOnUse" x="9" y="18" width="4" height="5">
<path d="M11.0647 22.3584C11.9644 22.3584 12.6938 21.5263 12.6938 20.5C12.6938 19.4736 11.9644 18.6416 11.0647 18.6416C10.1649 18.6416 9.43555 19.4736 9.43555 20.5C9.43555 21.5263 10.1649 22.3584 11.0647 22.3584Z" fill="url(#paint22_linear_269_5)"/>
</mask>
<g mask="url(#mask11_269_5)">
<path d="M11.0647 22.3584C11.9644 22.3584 12.6938 21.5263 12.6938 20.5C12.6938 19.4736 11.9644 18.6416 11.0647 18.6416C10.1649 18.6416 9.43555 19.4736 9.43555 20.5C9.43555 21.5263 10.1649 22.3584 11.0647 22.3584Z" fill="url(#paint23_linear_269_5)"/>
</g>
<mask id="mask12_269_5" style="mask-type:alpha" maskUnits="userSpaceOnUse" x="18" y="18" width="5" height="5">
<path d="M20.5007 22.3584C21.4005 22.3584 22.1299 21.5264 22.1299 20.5C22.1299 19.4737 21.4005 18.6417 20.5007 18.6417C19.601 18.6417 18.8716 19.4737 18.8716 20.5C18.8716 21.5264 19.601 22.3584 20.5007 22.3584Z" fill="url(#paint24_linear_269_5)"/>
</mask>
<g mask="url(#mask12_269_5)">
<path d="M20.5002 22.3584C21.4 22.3584 22.1294 21.5264 22.1294 20.5C22.1294 19.4737 21.4 18.6417 20.5002 18.6417C19.6005 18.6417 18.8711 19.4737 18.8711 20.5C18.8711 21.5264 19.6005 22.3584 20.5002 22.3584Z" fill="url(#paint25_linear_269_5)"/>
</g>
<mask id="mask13_269_5" style="mask-type:alpha" maskUnits="userSpaceOnUse" x="28" y="18" width="4" height="5">
<path d="M29.936 22.3584C30.8358 22.3584 31.5652 21.5264 31.5652 20.5C31.5652 19.4737 30.8358 18.6417 29.936 18.6417C29.0363 18.6417 28.3069 19.4737 28.3069 20.5C28.3069 21.5264 29.0363 22.3584 29.936 22.3584Z" fill="url(#paint26_linear_269_5)"/>
</mask>
<g mask="url(#mask13_269_5)">
<path d="M29.9358 22.3584C30.8355 22.3584 31.5649 21.5264 31.5649 20.5C31.5649 19.4737 30.8355 18.6417 29.9358 18.6417C29.036 18.6417 28.3066 19.4737 28.3066 20.5C28.3066 21.5264 29.036 22.3584 29.9358 22.3584Z" fill="url(#paint27_linear_269_5)"/>
</g>
<mask id="mask14_269_5" style="mask-type:alpha" maskUnits="userSpaceOnUse" x="37" y="18" width="4" height="5">
<path d="M39.3708 22.3584C40.2706 22.3584 41 21.5263 41 20.5C41 19.4736 40.2706 18.6416 39.3708 18.6416C38.4711 18.6416 37.7417 19.4736 37.7417 20.5C37.7417 21.5263 38.4711 22.3584 39.3708 22.3584Z" fill="url(#paint28_linear_269_5)"/>
</mask>
<g mask="url(#mask14_269_5)">
<path d="M39.3708 22.3584C40.2706 22.3584 41 21.5263 41 20.5C41 19.4736 40.2706 18.6416 39.3708 18.6416C38.4711 18.6416 37.7417 19.4736 37.7417 20.5C37.7417 21.5263 38.4711 22.3584 39.3708 22.3584Z" fill="url(#paint29_linear_269_5)"/>
</g>
<mask id="mask15_269_5" style="mask-type:alpha" maskUnits="userSpaceOnUse" x="0" y="27" width="4" height="5">
<path d="M1.62914 31.6889C2.52889 31.6889 3.25828 30.8568 3.25828 29.8305C3.25828 28.8041 2.52889 27.9721 1.62914 27.9721C0.729389 27.9721 0 28.8041 0 29.8305C0 30.8568 0.729389 31.6889 1.62914 31.6889Z" fill="url(#paint30_linear_269_5)"/>
</mask>
<g mask="url(#mask15_269_5)">
<path d="M1.62914 31.6889C2.52889 31.6889 3.25828 30.8568 3.25828 29.8305C3.25828 28.8041 2.52889 27.9721 1.62914 27.9721C0.729389 27.9721 0 28.8041 0 29.8305C0 30.8568 0.729389 31.6889 1.62914 31.6889Z" fill="url(#paint31_linear_269_5)"/>
</g>
<mask id="mask16_269_5" style="mask-type:alpha" maskUnits="userSpaceOnUse" x="9" y="27" width="4" height="5">
<path d="M11.0647 31.6889C11.9644 31.6889 12.6938 30.8568 12.6938 29.8305C12.6938 28.8041 11.9644 27.9721 11.0647 27.9721C10.1649 27.9721 9.43555 28.8041 9.43555 29.8305C9.43555 30.8568 10.1649 31.6889 11.0647 31.6889Z" fill="url(#paint32_linear_269_5)"/>
</mask>
<g mask="url(#mask16_269_5)">
<path d="M11.0647 31.6889C11.9644 31.6889 12.6938 30.8568 12.6938 29.8305C12.6938 28.8041 11.9644 27.9721 11.0647 27.9721C10.1649 27.9721 9.43555 28.8041 9.43555 29.8305C9.43555 30.8568 10.1649 31.6889 11.0647 31.6889Z" fill="url(#paint33_linear_269_5)"/>
</g>
<mask id="mask17_269_5" style="mask-type:alpha" maskUnits="userSpaceOnUse" x="18" y="27" width="5" height="5">
<path d="M20.5007 31.6889C21.4005 31.6889 22.1299 30.8568 22.1299 29.8305C22.1299 28.8041 21.4005 27.9721 20.5007 27.9721C19.601 27.9721 18.8716 28.8041 18.8716 29.8305C18.8716 30.8568 19.601 31.6889 20.5007 31.6889Z" fill="url(#paint34_linear_269_5)"/>
</mask>
<g mask="url(#mask17_269_5)">
<path d="M20.5002 31.6889C21.4 31.6889 22.1294 30.8568 22.1294 29.8305C22.1294 28.8041 21.4 27.9721 20.5002 27.9721C19.6005 27.9721 18.8711 28.8041 18.8711 29.8305C18.8711 30.8568 19.6005 31.6889 20.5002 31.6889Z" fill="url(#paint35_linear_269_5)"/>
</g>
<mask id="mask18_269_5" style="mask-type:alpha" maskUnits="userSpaceOnUse" x="28" y="27" width="4" height="5">
<path d="M29.936 31.6889C30.8358 31.6889 31.5652 30.8568 31.5652 29.8305C31.5652 28.8041 30.8358 27.9721 29.936 27.9721C29.0363 27.9721 28.3069 28.8041 28.3069 29.8305C28.3069 30.8568 29.0363 31.6889 29.936 31.6889Z" fill="url(#paint36_linear_269_5)"/>
</mask>
<g mask="url(#mask18_269_5)">
<path d="M29.9358 31.6889C30.8355 31.6889 31.5649 30.8568 31.5649 29.8305C31.5649 28.8041 30.8355 27.9721 29.9358 27.9721C29.036 27.9721 28.3066 28.8041 28.3066 29.8305C28.3066 30.8568 29.036 31.6889 29.9358 31.6889Z" fill="url(#paint37_linear_269_5)"/>
</g>
<mask id="mask19_269_5" style="mask-type:alpha" maskUnits="userSpaceOnUse" x="37" y="27" width="4" height="5">
<path d="M39.3708 31.6889C40.2706 31.6889 41 30.8568 41 29.8305C41 28.8041 40.2706 27.9721 39.3708 27.9721C38.4711 27.9721 37.7417 28.8041 37.7417 29.8305C37.7417 30.8568 38.4711 31.6889 39.3708 31.6889Z" fill="url(#paint38_linear_269_5)"/>
</mask>
<g mask="url(#mask19_269_5)">
<path d="M39.3708 31.6889C40.2706 31.6889 41 30.8568 41 29.8305C41 28.8041 40.2706 27.9721 39.3708 27.9721C38.4711 27.9721 37.7417 28.8041 37.7417 29.8305C37.7417 30.8568 38.4711 31.6889 39.3708 31.6889Z" fill="url(#paint39_linear_269_5)"/>
</g>
<mask id="mask20_269_5" style="mask-type:alpha" maskUnits="userSpaceOnUse" x="0" y="37" width="4" height="4">
<path d="M1.62914 41C2.52889 41 3.25828 40.168 3.25828 39.1416C3.25828 38.1153 2.52889 37.2833 1.62914 37.2833C0.729389 37.2833 0 38.1153 0 39.1416C0 40.168 0.729389 41 1.62914 41Z" fill="url(#paint40_linear_269_5)"/>
</mask>
<g mask="url(#mask20_269_5)">
<path d="M1.62914 41C2.52889 41 3.25828 40.168 3.25828 39.1416C3.25828 38.1153 2.52889 37.2833 1.62914 37.2833C0.729389 37.2833 0 38.1153 0 39.1416C0 40.168 0.729389 41 1.62914 41Z" fill="url(#paint41_linear_269_5)"/>
</g>
<mask id="mask21_269_5" style="mask-type:alpha" maskUnits="userSpaceOnUse" x="9" y="37" width="4" height="4">
<path d="M11.0647 41C11.9644 41 12.6938 40.168 12.6938 39.1416C12.6938 38.1153 11.9644 37.2833 11.0647 37.2833C10.1649 37.2833 9.43555 38.1153 9.43555 39.1416C9.43555 40.168 10.1649 41 11.0647 41Z" fill="url(#paint42_linear_269_5)"/>
</mask>
<g mask="url(#mask21_269_5)">
<path d="M11.0647 41C11.9644 41 12.6938 40.168 12.6938 39.1416C12.6938 38.1153 11.9644 37.2833 11.0647 37.2833C10.1649 37.2833 9.43555 38.1153 9.43555 39.1416C9.43555 40.168 10.1649 41 11.0647 41Z" fill="url(#paint43_linear_269_5)"/>
</g>
<mask id="mask22_269_5" style="mask-type:alpha" maskUnits="userSpaceOnUse" x="18" y="37" width="5" height="4">
<path d="M20.5007 41C21.4005 41 22.1299 40.168 22.1299 39.1416C22.1299 38.1153 21.4005 37.2833 20.5007 37.2833C19.601 37.2833 18.8716 38.1153 18.8716 39.1416C18.8716 40.168 19.601 41 20.5007 41Z" fill="url(#paint44_linear_269_5)"/>
</mask>
<g mask="url(#mask22_269_5)">
<path d="M20.5002 41C21.4 41 22.1294 40.168 22.1294 39.1416C22.1294 38.1153 21.4 37.2833 20.5002 37.2833C19.6005 37.2833 18.8711 38.1153 18.8711 39.1416C18.8711 40.168 19.6005 41 20.5002 41Z" fill="url(#paint45_linear_269_5)"/>
</g>
<mask id="mask23_269_5" style="mask-type:alpha" maskUnits="userSpaceOnUse" x="28" y="37" width="4" height="4">
<path d="M29.936 41C30.8358 41 31.5652 40.168 31.5652 39.1416C31.5652 38.1153 30.8358 37.2833 29.936 37.2833C29.0363 37.2833 28.3069 38.1153 28.3069 39.1416C28.3069 40.168 29.0363 41 29.936 41Z" fill="url(#paint46_linear_269_5)"/>
</mask>
<g mask="url(#mask23_269_5)">
<path d="M29.9358 41C30.8355 41 31.5649 40.168 31.5649 39.1416C31.5649 38.1153 30.8355 37.2833 29.9358 37.2833C29.036 37.2833 28.3066 38.1153 28.3066 39.1416C28.3066 40.168 29.036 41 29.9358 41Z" fill="url(#paint47_linear_269_5)"/>
</g>
<mask id="mask24_269_5" style="mask-type:alpha" maskUnits="userSpaceOnUse" x="37" y="37" width="4" height="4">
<path d="M39.3708 41C40.2706 41 41 40.168 41 39.1416C41 38.1153 40.2706 37.2833 39.3708 37.2833C38.4711 37.2833 37.7417 38.1153 37.7417 39.1416C37.7417 40.168 38.4711 41 39.3708 41Z" fill="url(#paint48_linear_269_5)"/>
</mask>
<g mask="url(#mask24_269_5)">
<path d="M39.3708 41C40.2706 41 41 40.168 41 39.1416C41 38.1153 40.2706 37.2833 39.3708 37.2833C38.4711 37.2833 37.7417 38.1153 37.7417 39.1416C37.7417 40.168 38.4711 41 39.3708 41Z" fill="url(#paint49_linear_269_5)"/>
</g>
</g>
<defs>
<linearGradient id="paint0_linear_269_5" x1="17.1365" y1="46.7521" x2="-10.8346" y2="-15.4934" gradientUnits="userSpaceOnUse">
<stop/>
<stop offset="1" stop-color="white"/>
</linearGradient>
<linearGradient id="paint1_linear_269_5" x1="17.1365" y1="46.7521" x2="-10.8346" y2="-15.4934" gradientUnits="userSpaceOnUse">
<stop stop-color="#97C3F9"/>
<stop offset="1" stop-color="#93C1F9"/>
</linearGradient>
<linearGradient id="paint2_linear_269_5" x1="25.3018" y1="43.083" x2="-2.66923" y2="-19.1625" gradientUnits="userSpaceOnUse">
<stop/>
<stop offset="1" stop-color="white"/>
</linearGradient>
<linearGradient id="paint3_linear_269_5" x1="25.3018" y1="43.083" x2="-2.66923" y2="-19.1625" gradientUnits="userSpaceOnUse">
<stop stop-color="#97C3F9"/>
<stop offset="1" stop-color="#93C1F9"/>
</linearGradient>
<linearGradient id="paint4_linear_269_5" x1="33.4676" y1="39.4139" x2="5.49656" y2="-22.8315" gradientUnits="userSpaceOnUse">
<stop/>
<stop offset="1" stop-color="white"/>
</linearGradient>
<linearGradient id="paint5_linear_269_5" x1="33.4671" y1="39.4139" x2="5.49607" y2="-22.8315" gradientUnits="userSpaceOnUse">
<stop stop-color="#97C3F9"/>
<stop offset="1" stop-color="#93C1F9"/>
</linearGradient>
<linearGradient id="paint6_linear_269_5" x1="41.6325" y1="35.7447" x2="13.6615" y2="-26.5008" gradientUnits="userSpaceOnUse">
<stop/>
<stop offset="1" stop-color="white"/>
</linearGradient>
<linearGradient id="paint7_linear_269_5" x1="41.6323" y1="35.7447" x2="13.6613" y2="-26.5008" gradientUnits="userSpaceOnUse">
<stop stop-color="#97C3F9"/>
<stop offset="1" stop-color="#93C1F9"/>
</linearGradient>
<linearGradient id="paint8_linear_269_5" x1="49.7971" y1="32.0755" x2="21.826" y2="-30.17" gradientUnits="userSpaceOnUse">
<stop/>
<stop offset="1" stop-color="white"/>
</linearGradient>
<linearGradient id="paint9_linear_269_5" x1="49.7971" y1="32.0755" x2="21.826" y2="-30.17" gradientUnits="userSpaceOnUse">
<stop stop-color="#97C3F9"/>
<stop offset="1" stop-color="#93C1F9"/>
</linearGradient>
<linearGradient id="paint10_linear_269_5" x1="14.3501" y1="48.004" x2="-13.6204" y2="-14.241" gradientUnits="userSpaceOnUse">
<stop/>
<stop offset="1" stop-color="white"/>
</linearGradient>
<linearGradient id="paint11_linear_269_5" x1="14.3501" y1="48.004" x2="-13.6204" y2="-14.241" gradientUnits="userSpaceOnUse">
<stop stop-color="#97C3F9"/>
<stop offset="1" stop-color="#93C1F9"/>
</linearGradient>
<linearGradient id="paint12_linear_269_5" x1="22.5154" y1="44.3348" x2="-5.45517" y2="-17.9103" gradientUnits="userSpaceOnUse">
<stop/>
<stop offset="1" stop-color="white"/>
</linearGradient>
<linearGradient id="paint13_linear_269_5" x1="22.5154" y1="44.3348" x2="-5.45517" y2="-17.9103" gradientUnits="userSpaceOnUse">
<stop stop-color="#97C3F9"/>
<stop offset="1" stop-color="#93C1F9"/>
</linearGradient>
<linearGradient id="paint14_linear_269_5" x1="30.6811" y1="40.6656" x2="2.71058" y2="-21.5794" gradientUnits="userSpaceOnUse">
<stop/>
<stop offset="1" stop-color="white"/>
</linearGradient>
<linearGradient id="paint15_linear_269_5" x1="30.6806" y1="40.6656" x2="2.71009" y2="-21.5794" gradientUnits="userSpaceOnUse">
<stop stop-color="#97C3F9"/>
<stop offset="1" stop-color="#93C1F9"/>
</linearGradient>
<linearGradient id="paint16_linear_269_5" x1="38.8461" y1="36.9965" x2="10.8756" y2="-25.2485" gradientUnits="userSpaceOnUse">
<stop/>
<stop offset="1" stop-color="white"/>
</linearGradient>
<linearGradient id="paint17_linear_269_5" x1="38.8459" y1="36.9965" x2="10.8753" y2="-25.2485" gradientUnits="userSpaceOnUse">
<stop stop-color="#97C3F9"/>
<stop offset="1" stop-color="#93C1F9"/>
</linearGradient>
<linearGradient id="paint18_linear_269_5" x1="47.0107" y1="33.3274" x2="19.0401" y2="-28.9176" gradientUnits="userSpaceOnUse">
<stop/>
<stop offset="1" stop-color="white"/>
</linearGradient>
<linearGradient id="paint19_linear_269_5" x1="47.0107" y1="33.3274" x2="19.0401" y2="-28.9176" gradientUnits="userSpaceOnUse">
<stop stop-color="#97C3F9"/>
<stop offset="1" stop-color="#93C1F9"/>
</linearGradient>
<linearGradient id="paint20_linear_269_5" x1="11.5637" y1="49.2563" x2="-16.4073" y2="-12.9891" gradientUnits="userSpaceOnUse">
<stop/>
<stop offset="1" stop-color="white"/>
</linearGradient>
<linearGradient id="paint21_linear_269_5" x1="11.5637" y1="49.2563" x2="-16.4073" y2="-12.9891" gradientUnits="userSpaceOnUse">
<stop stop-color="#97C3F9"/>
<stop offset="1" stop-color="#93C1F9"/>
</linearGradient>
<linearGradient id="paint22_linear_269_5" x1="19.729" y1="45.5872" x2="-8.24204" y2="-16.6583" gradientUnits="userSpaceOnUse">
<stop/>
<stop offset="1" stop-color="white"/>
</linearGradient>
<linearGradient id="paint23_linear_269_5" x1="19.729" y1="45.5872" x2="-8.24204" y2="-16.6583" gradientUnits="userSpaceOnUse">
<stop stop-color="#97C3F9"/>
<stop offset="1" stop-color="#93C1F9"/>
</linearGradient>
<linearGradient id="paint24_linear_269_5" x1="27.8947" y1="41.9181" x2="-0.0762693" y2="-20.3274" gradientUnits="userSpaceOnUse">
<stop/>
<stop offset="1" stop-color="white"/>
</linearGradient>
<linearGradient id="paint25_linear_269_5" x1="27.8942" y1="41.9181" x2="-0.0767576" y2="-20.3274" gradientUnits="userSpaceOnUse">
<stop stop-color="#97C3F9"/>
<stop offset="1" stop-color="#93C1F9"/>
</linearGradient>
<linearGradient id="paint26_linear_269_5" x1="36.0597" y1="38.2489" x2="8.08871" y2="-23.9966" gradientUnits="userSpaceOnUse">
<stop/>
<stop offset="1" stop-color="white"/>
</linearGradient>
<linearGradient id="paint27_linear_269_5" x1="36.0595" y1="38.2489" x2="8.08846" y2="-23.9966" gradientUnits="userSpaceOnUse">
<stop stop-color="#97C3F9"/>
<stop offset="1" stop-color="#93C1F9"/>
</linearGradient>
<linearGradient id="paint28_linear_269_5" x1="44.2243" y1="34.5797" x2="16.2532" y2="-27.6657" gradientUnits="userSpaceOnUse">
<stop/>
<stop offset="1" stop-color="white"/>
</linearGradient>
<linearGradient id="paint29_linear_269_5" x1="44.2243" y1="34.5797" x2="16.2532" y2="-27.6657" gradientUnits="userSpaceOnUse">
<stop stop-color="#97C3F9"/>
<stop offset="1" stop-color="#93C1F9"/>
</linearGradient>
<linearGradient id="paint30_linear_269_5" x1="8.77731" y1="50.5084" x2="-19.1937" y2="-11.737" gradientUnits="userSpaceOnUse">
<stop/>
<stop offset="1" stop-color="white"/>
</linearGradient>
<linearGradient id="paint31_linear_269_5" x1="8.77731" y1="50.5084" x2="-19.1937" y2="-11.737" gradientUnits="userSpaceOnUse">
<stop stop-color="#97C3F9"/>
<stop offset="1" stop-color="#93C1F9"/>
</linearGradient>
<linearGradient id="paint32_linear_269_5" x1="16.9426" y1="46.8393" x2="-11.0284" y2="-15.4062" gradientUnits="userSpaceOnUse">
<stop/>
<stop offset="1" stop-color="white"/>
</linearGradient>
<linearGradient id="paint33_linear_269_5" x1="16.9426" y1="46.8393" x2="-11.0284" y2="-15.4062" gradientUnits="userSpaceOnUse">
<stop stop-color="#97C3F9"/>
<stop offset="1" stop-color="#93C1F9"/>
</linearGradient>
<linearGradient id="paint34_linear_269_5" x1="25.1083" y1="43.1701" x2="-2.86267" y2="-19.0753" gradientUnits="userSpaceOnUse">
<stop/>
<stop offset="1" stop-color="white"/>
</linearGradient>
<linearGradient id="paint35_linear_269_5" x1="25.1078" y1="43.1701" x2="-2.86316" y2="-19.0753" gradientUnits="userSpaceOnUse">
<stop stop-color="#97C3F9"/>
<stop offset="1" stop-color="#93C1F9"/>
</linearGradient>
<linearGradient id="paint36_linear_269_5" x1="33.2733" y1="39.501" x2="5.30232" y2="-22.7445" gradientUnits="userSpaceOnUse">
<stop/>
<stop offset="1" stop-color="white"/>
</linearGradient>
<linearGradient id="paint37_linear_269_5" x1="33.2731" y1="39.501" x2="5.30207" y2="-22.7445" gradientUnits="userSpaceOnUse">
<stop stop-color="#97C3F9"/>
<stop offset="1" stop-color="#93C1F9"/>
</linearGradient>
<linearGradient id="paint38_linear_269_5" x1="41.4379" y1="35.8318" x2="13.4668" y2="-26.4136" gradientUnits="userSpaceOnUse">
<stop/>
<stop offset="1" stop-color="white"/>
</linearGradient>
<linearGradient id="paint39_linear_269_5" x1="41.4379" y1="35.8318" x2="13.4668" y2="-26.4136" gradientUnits="userSpaceOnUse">
<stop stop-color="#97C3F9"/>
<stop offset="1" stop-color="#93C1F9"/>
</linearGradient>
<linearGradient id="paint40_linear_269_5" x1="5.9909" y1="51.7605" x2="-21.9801" y2="-10.4849" gradientUnits="userSpaceOnUse">
<stop/>
<stop offset="1" stop-color="white"/>
</linearGradient>
<linearGradient id="paint41_linear_269_5" x1="5.9909" y1="51.7605" x2="-21.9801" y2="-10.4849" gradientUnits="userSpaceOnUse">
<stop stop-color="#97C3F9"/>
<stop offset="1" stop-color="#93C1F9"/>
</linearGradient>
<linearGradient id="paint42_linear_269_5" x1="14.1562" y1="48.0913" x2="-13.8148" y2="-14.1541" gradientUnits="userSpaceOnUse">
<stop/>
<stop offset="1" stop-color="white"/>
</linearGradient>
<linearGradient id="paint43_linear_269_5" x1="14.1562" y1="48.0913" x2="-13.8148" y2="-14.1541" gradientUnits="userSpaceOnUse">
<stop stop-color="#97C3F9"/>
<stop offset="1" stop-color="#93C1F9"/>
</linearGradient>
<linearGradient id="paint44_linear_269_5" x1="22.3219" y1="44.4222" x2="-5.64906" y2="-17.8232" gradientUnits="userSpaceOnUse">
<stop/>
<stop offset="1" stop-color="white"/>
</linearGradient>
<linearGradient id="paint45_linear_269_5" x1="22.3214" y1="44.4222" x2="-5.64955" y2="-17.8232" gradientUnits="userSpaceOnUse">
<stop stop-color="#97C3F9"/>
<stop offset="1" stop-color="#93C1F9"/>
</linearGradient>
<linearGradient id="paint46_linear_269_5" x1="30.4869" y1="40.7531" x2="2.51593" y2="-21.4924" gradientUnits="userSpaceOnUse">
<stop/>
<stop offset="1" stop-color="white"/>
</linearGradient>
<linearGradient id="paint47_linear_269_5" x1="30.4867" y1="40.7531" x2="2.51568" y2="-21.4924" gradientUnits="userSpaceOnUse">
<stop stop-color="#97C3F9"/>
<stop offset="1" stop-color="#93C1F9"/>
</linearGradient>
<linearGradient id="paint48_linear_269_5" x1="38.6515" y1="37.0839" x2="10.6805" y2="-25.1615" gradientUnits="userSpaceOnUse">
<stop/>
<stop offset="1" stop-color="white"/>
</linearGradient>
<linearGradient id="paint49_linear_269_5" x1="38.6515" y1="37.0839" x2="10.6805" y2="-25.1615" gradientUnits="userSpaceOnUse">
<stop stop-color="#97C3F9"/>
<stop offset="1" stop-color="#93C1F9"/>
</linearGradient>
</defs>
</svg>
